<svg width="185" height="127" viewBox="0 0 185 127" fill="none" xmlns="http://www.w3.org/2000/svg">
<g clip-path="url(#clip0_2202_22641)">
<path d="M39.9336 47.2436C32.7863 47.2787 25.6741 47.2787 18.5268 47.3137C18.2451 47.3137 17.9283 47.3137 17.717 47.1033C17.4705 46.8929 17.4353 46.5071 17.4705 46.1563C17.6114 44.7183 18.4916 43.3855 19.7943 42.7191C20.3577 42.4386 20.9914 42.2281 21.2731 41.702C21.4491 41.3864 21.4491 40.9655 21.5195 40.6148C21.8012 39.0715 23.28 37.844 24.8643 37.9141C25.4629 37.9141 26.0966 38.0895 26.6248 37.844C27.1177 37.6335 27.4346 37.1074 27.7867 36.6515C28.9838 35.1784 31.2371 34.6523 32.9623 35.4239C35.4269 36.5112 35.9198 39.282 37.3986 41.211C39.0182 43.2452 40.7786 43.6311 40.1097 46.6824C40.0745 46.8578 40.0392 46.9981 40.004 47.1033C39.9688 47.2085 39.9336 47.2436 39.9336 47.2436Z" fill="#E5FCFF"/>
<path d="M184.183 64.2892C176.719 64.3242 169.255 64.3242 161.826 64.3593C161.122 61.9393 163.305 59.2036 165.804 59.2737C166.051 57.976 166.368 56.6432 167.248 55.6612C168.128 54.7142 169.853 54.3635 170.734 55.3455C171.508 53.3463 173.691 51.9785 175.839 52.1539C177.987 52.2941 179.923 53.9426 180.451 56.0119C180.592 56.6432 180.662 57.3447 181.05 57.8357C181.472 58.3969 182.212 58.6073 182.845 58.9581C184.641 60.0804 184.817 62.4654 184.183 64.2892Z" fill="#E5FCFF"/>
<path d="M124.68 121.318C117.216 121.353 109.752 121.353 102.323 121.388C101.619 118.968 103.802 116.233 106.301 116.303C106.548 115.005 106.865 113.672 107.745 112.69C108.625 111.743 110.35 111.392 111.231 112.375C112.005 110.375 114.188 109.007 116.336 109.183C118.484 109.358 120.42 110.972 120.948 113.041C121.089 113.672 121.159 114.374 121.547 114.865C121.969 115.426 122.709 115.636 123.342 115.987C125.138 117.074 125.314 119.459 124.68 121.318Z" fill="#E5FCFF"/>
<path d="M34.8635 121.318C27.3992 121.353 19.935 121.353 12.4708 121.388C11.7666 118.968 13.9496 116.233 16.4494 116.303C16.6958 115.005 17.0127 113.672 17.8929 112.69C18.7731 111.743 20.4984 111.392 21.3786 112.375C22.1532 110.375 24.3361 109.007 26.4838 109.183C28.6316 109.323 30.568 110.972 31.0962 113.041C31.237 113.672 31.3074 114.374 31.6947 114.865C32.1172 115.426 32.8566 115.636 33.4903 115.987C35.3212 117.074 35.4972 119.459 34.8635 121.318Z" fill="#E5FCFF"/>
<path d="M115.773 12.1704C108.308 12.2055 100.844 12.2055 93.4151 12.2405C92.711 9.82049 94.8939 7.08479 97.3937 7.15493C97.6402 5.85722 97.9571 4.52444 98.8373 3.54239C99.7175 2.56035 101.443 2.24469 102.323 3.22674C103.098 1.22756 105.28 -0.14029 107.428 0.0350761C109.576 0.210442 111.512 1.82381 112.04 3.89313C112.181 4.52444 112.252 5.22591 112.639 5.71693C113.062 6.2781 113.801 6.48854 114.435 6.83927C116.23 7.96162 116.442 10.3115 115.773 12.1704Z" fill="#E5FCFF"/>
<path d="M28.7725 127C28.35 127 27.9274 127 27.4697 126.965C26.9768 126.965 26.5895 126.544 26.6247 126.053C26.6247 125.562 27.0472 125.211 27.5402 125.211C27.9627 125.211 28.3852 125.246 28.8077 125.246C32.3285 125.246 35.6733 124.755 38.7013 123.773C39.159 123.633 39.6519 123.878 39.7927 124.334C39.9336 124.79 39.6871 125.281 39.2294 125.422C36.0254 126.474 32.5046 127 28.7725 127ZM25.3924 126.86C25.3572 126.86 25.3572 126.86 25.322 126.86C21.6251 126.544 17.7522 125.808 13.7384 124.58C13.2807 124.44 12.999 123.949 13.1398 123.493C13.2807 123.037 13.7736 122.756 14.2313 122.896C18.1043 124.089 21.8716 124.825 25.4276 125.106C25.9206 125.141 26.2726 125.562 26.2374 126.053C26.2374 126.509 25.8501 126.86 25.3924 126.86ZM40.9546 124.79C40.6025 124.79 40.2857 124.58 40.1448 124.229C39.9688 123.773 40.18 123.282 40.6377 123.072C41.2715 122.826 41.9053 122.546 42.5038 122.23C45.3557 120.827 47.9963 119.144 50.3553 117.285C50.7426 116.969 51.2707 117.039 51.5876 117.425C51.9045 117.811 51.8341 118.337 51.4468 118.653C48.9822 120.617 46.2359 122.37 43.2784 123.808C42.6446 124.124 41.9757 124.44 41.3067 124.685C41.1659 124.755 41.0602 124.79 40.9546 124.79ZM12.0132 123.949C11.9075 123.949 11.8371 123.949 11.7315 123.914C5.39396 121.739 1.13373 119.249 0.957682 119.144C0.535179 118.898 0.394345 118.372 0.640805 117.951C0.887265 117.53 1.41539 117.39 1.8379 117.635C1.87311 117.671 6.13334 120.126 12.2948 122.23C12.7526 122.37 12.999 122.896 12.8582 123.352C12.7173 123.738 12.3653 123.949 12.0132 123.949ZM52.503 117.495C52.2566 117.495 52.0101 117.39 51.8341 117.215C51.5172 116.864 51.5524 116.303 51.9045 115.987C54.7212 113.462 57.1506 110.516 59.1222 107.289C59.3687 106.868 59.8968 106.728 60.3193 106.973C60.7418 107.219 60.8827 107.745 60.6362 108.166C58.5941 111.533 56.0591 114.619 53.1016 117.25C52.9255 117.425 52.7143 117.495 52.503 117.495ZM60.9179 106.798C60.7771 106.798 60.6362 106.763 60.4954 106.693C60.0729 106.482 59.8968 105.921 60.1433 105.5C61.9037 102.168 63.1712 98.5907 63.9106 94.873C64.0162 94.3819 64.4739 94.1014 64.9317 94.1715C65.4246 94.2767 65.7063 94.7327 65.6358 95.1886C64.8612 99.0817 63.5233 102.835 61.6925 106.307C61.5164 106.622 61.2348 106.798 60.9179 106.798ZM70.3186 94.873C69.0863 94.873 67.8188 94.7677 66.6217 94.5573C66.1288 94.4872 65.8119 94.0312 65.9175 93.5402C65.9879 93.0492 66.4456 92.7335 66.9385 92.8387C68.0652 93.0492 69.1919 93.1544 70.3538 93.1544C72.9592 93.1544 75.459 92.6283 77.818 91.6112C78.2757 91.4007 78.7686 91.6112 78.9799 92.0671C79.1911 92.5231 78.9799 93.0141 78.5222 93.2245C75.9167 94.3118 73.1705 94.873 70.3186 94.873ZM64.7204 94.1014C64.65 94.1014 64.5444 94.1014 64.4739 94.0663C60.5306 92.9439 57.0097 90.7694 54.3339 87.7531C54.017 87.4024 54.0522 86.8412 54.4043 86.5255C54.7564 86.2099 55.3197 86.245 55.6366 86.5957C57.9604 89.1911 60.9531 91.1201 64.3331 92.2074C64.5092 90.6993 64.6148 89.2262 64.6148 87.7531C64.6148 85.5435 64.4035 83.5093 63.981 81.6504C63.8754 81.1944 64.1571 80.7034 64.65 80.5982C65.1077 80.493 65.6006 80.7735 65.7062 81.2646C66.164 83.2287 66.3752 85.4032 66.3752 87.7531C66.3752 89.5068 66.2344 91.2955 65.9879 93.0842C65.9527 93.435 65.671 93.7155 65.3542 93.7857C65.2133 93.9961 64.9669 94.1014 64.7204 94.1014ZM80.0361 92.3477C79.7193 92.3477 79.4376 92.1723 79.2616 91.8917C79.0151 91.4709 79.1559 90.9448 79.5784 90.6993C81.7262 89.4717 83.6626 87.8233 85.3526 85.789C86.092 84.9122 86.761 83.9652 87.3947 82.913C87.6412 82.4921 88.2045 82.3518 88.5918 82.6324C89.0143 82.8779 89.1552 83.4391 88.8735 83.8249C88.2045 84.9473 87.5004 85.9293 86.6906 86.9114C84.8597 89.121 82.7824 90.9097 80.4234 92.2425C80.353 92.3126 80.177 92.3477 80.0361 92.3477ZM53.7001 86.3853C53.4185 86.3853 53.1368 86.245 52.9607 85.9995C51.482 83.8951 50.7074 81.6855 50.7074 79.6512C50.7074 77.5117 51.5524 75.6178 53.0664 74.3201C53.4185 74.0044 53.9818 74.0395 54.2987 74.4253C54.6156 74.776 54.5803 75.3372 54.193 75.6529C53.0664 76.6349 52.4326 78.0378 52.4326 79.6512C52.4326 81.3347 53.1016 83.1585 54.3691 84.9823C54.6508 85.3681 54.5451 85.9293 54.1578 86.2099C54.0522 86.3502 53.8762 86.3853 53.7001 86.3853ZM89.1904 82.3869C89.0495 82.3869 88.9087 82.3518 88.8031 82.2817C88.3806 82.0713 88.2045 81.5452 88.4158 81.0892C89.7889 78.4587 90.7748 75.6879 91.7254 72.9873C92.0423 72.1455 92.3239 71.2687 92.6408 70.427C92.8169 69.971 93.3098 69.7255 93.7675 69.9009C94.2252 70.0762 94.4717 70.5672 94.2956 71.0232C93.9787 71.865 93.6971 72.7067 93.3802 73.5485C92.3943 76.2842 91.4085 79.1251 89.965 81.8959C89.8241 82.2115 89.5072 82.3869 89.1904 82.3869ZM64.2979 80.2825C63.9458 80.2825 63.5937 80.0721 63.4529 79.6863C62.96 78.2132 62.291 77.0558 61.5868 76.3543C60.3545 75.1268 58.911 74.4604 57.397 74.4604C56.8337 74.4604 56.3056 74.5656 55.7774 74.741C55.3197 74.9163 54.8268 74.6708 54.6508 74.2149C54.4747 73.7589 54.7212 73.2679 55.1789 73.0925C55.8831 72.847 56.6224 72.7067 57.397 72.7067C59.3335 72.7067 61.27 73.5485 62.8191 75.0917C63.7346 76.0036 64.5092 77.3714 65.1077 79.09C65.2837 79.546 65.0373 80.037 64.5796 80.2124C64.4739 80.2825 64.3683 80.2825 64.2979 80.2825ZM94.19 69.6904C94.0844 69.6904 93.9787 69.6553 93.8731 69.6203C93.4154 69.4449 93.2041 68.9188 93.3802 68.4629C94.7181 65.2011 96.549 61.4833 100.246 58.7476C100.633 58.467 101.196 58.5371 101.478 58.923C101.76 59.3088 101.689 59.8699 101.302 60.1505C97.9925 62.6407 96.2673 66.0779 95.035 69.1293C94.8942 69.48 94.5421 69.6904 94.19 69.6904ZM102.534 59.1685C102.218 59.1685 101.936 58.9931 101.76 58.7125C101.513 58.2916 101.654 57.7655 102.077 57.52C104.189 56.3275 106.619 55.4858 109.541 54.9246C110.034 54.8194 110.492 55.1701 110.562 55.6261C110.632 56.1171 110.351 56.573 109.858 56.6432C107.147 57.1342 104.893 57.9058 102.957 59.0282C102.816 59.1334 102.675 59.1685 102.534 59.1685Z" fill="#443086"/>
<path d="M92.2886 56.8186L89.2959 79.546L102.64 63.4123L159.326 27.4974L92.2886 56.8186Z" fill="#C9F1F6"/>
<path d="M92.2886 56.8186L89.2959 79.546L102.64 63.4123L159.326 27.4974L92.2886 56.8186Z" fill="#42CFDF"/>
<path d="M105.774 67.8666L89.2959 79.546L102.64 63.4123L105.774 67.8666Z" fill="#13A1A8"/>
<path d="M102.64 63.4123L159.326 27.4974L119.716 87.8583L102.64 63.4123Z" fill="#75E0E0"/>
<path d="M92.2887 56.8186L62.9951 46.016L159.326 27.4974L92.2887 56.8186Z" fill="#75E0E0"/>
</g>
<defs>
<clipPath id="clip0_2202_22641">
<rect width="184" height="127" fill="white" transform="translate(0.5)"/>
</clipPath>
</defs>
</svg>
