<svg width="223" height="171" viewBox="0 0 223 171" fill="none" xmlns="http://www.w3.org/2000/svg">
<path d="M117.254 130.659C117.663 131.169 118.48 131.067 119.093 130.914C120.677 130.506 122.21 130.097 123.794 129.689C124.459 129.535 125.174 129.331 125.736 128.923C126.605 128.31 127.116 127.34 127.627 126.42C133.145 115.697 138.664 104.923 144.182 94.1992C139.634 96.5992 135.087 98.9992 130.59 101.501C127.218 103.34 121.444 105.28 119.911 109.059C119.349 110.438 119.144 111.918 118.991 113.399C118.378 118.761 117.714 124.123 117.101 129.484C117.049 129.893 116.998 130.301 117.254 130.659Z" fill="#443086"/>
<path d="M90.1213 83.1184C91.501 81.1269 93.3916 78.5226 95.4865 77.246C97.6837 75.9694 100.698 76.2248 103.151 76.429C113.933 77.2971 124.765 78.1652 135.547 79.0333C128.444 83.0673 121.342 87.1013 114.239 91.1354C113.473 91.595 112.655 92.0545 111.735 92.1056C110.611 92.2077 109.538 91.7482 108.516 91.2886C102.385 88.6333 96.253 85.8758 90.1213 83.1184Z" fill="#443086"/>
<path d="M118.94 112.021C119.042 112.072 119.196 112.123 119.298 112.123C120.32 112.276 122.057 111.306 122.977 110.897C125.327 109.927 127.473 108.599 129.773 107.527C133.554 105.791 137.284 103.952 141.065 102.267C150.314 98.1311 159.971 94.7609 168.555 89.3482C174.636 85.5694 180.052 80.7184 184.447 75.1014C187.461 71.2205 190.067 67.0333 191.958 62.4886C192.622 60.9056 194.615 57.0248 193.338 56.0035C188.688 52.2248 180.717 54.0631 175.249 54.4205C157.825 55.646 144.642 65.0928 130.846 74.795C123.845 79.6971 116.59 84.3439 109.589 89.246C108.772 89.8077 107.954 90.4716 107.75 91.3907C107.545 92.3609 108.005 93.2801 108.516 94.1482C111.429 99.3567 114.392 104.565 117.305 109.774C117.867 110.795 118.071 111.663 118.94 112.021Z" fill="#1EC6D9"/>
<path d="M161.913 81.3311C156.19 84.2418 149.292 77.9609 153.482 72.395C156.701 68.1567 163.701 68.8716 165.234 74.1822C166.103 77.4503 164.366 80.0545 161.913 81.3311Z" fill="white"/>
<path d="M111.735 113.808C113.064 113.808 117.867 110.897 117.765 110.693C114.597 105.025 111.429 99.4077 108.261 93.7397C108.159 93.5354 108.005 93.3311 107.801 93.229C107.596 93.178 107.341 93.229 107.137 93.3311C105.91 93.8418 101.925 94.7099 102.282 96.7524C102.282 97.6205 102.742 98.3865 103.151 99.1014C105.042 102.369 106.932 105.689 108.823 108.957C109.385 109.876 110.611 113.297 111.531 113.706C111.582 113.808 111.684 113.808 111.735 113.808Z" fill="#443086"/>
<path d="M180.921 79.4929C180.972 79.4929 181.023 79.4929 181.074 79.4929C181.125 79.4418 181.176 79.3907 181.125 79.2886L167.533 55.1865C167.482 55.1354 167.431 55.0843 167.329 55.1354C167.278 55.1865 167.227 55.2375 167.278 55.3397L180.819 79.4418C180.87 79.4418 180.87 79.4929 180.921 79.4929Z" fill="#443086"/>
<path d="M89.917 130.914C90.1214 131.016 90.3258 130.914 90.4791 130.761C93.2894 126.318 96.6618 122.284 100.494 118.761C100.647 118.608 100.698 118.301 100.545 118.148C100.392 117.995 100.085 117.944 99.932 118.097C95.9976 121.672 92.5741 125.808 89.7637 130.301C89.6104 130.506 89.6615 130.761 89.917 130.914C89.8659 130.914 89.8659 130.914 89.917 130.914Z" fill="#443086"/>
<path d="M102.998 116.565C103.151 116.616 103.304 116.616 103.407 116.514L106.37 114.574C106.575 114.421 106.626 114.165 106.472 113.961C106.319 113.757 106.064 113.706 105.859 113.859L102.896 115.799C102.691 115.952 102.64 116.208 102.793 116.412C102.845 116.463 102.896 116.514 102.998 116.565Z" fill="#443086"/>
<path d="M83.1212 141.893C83.2234 141.944 83.3256 141.944 83.4789 141.893C84.7563 141.433 85.8804 140.361 86.6469 138.931C87.3623 137.655 87.7199 136.327 88.0776 134.948C88.1287 134.693 88.0265 134.489 87.771 134.438C87.5155 134.387 87.3112 134.489 87.2601 134.744C86.9024 136.021 86.5447 137.348 85.8804 138.523C85.1651 139.799 84.1942 140.667 83.1723 141.076C82.9679 141.178 82.8146 141.433 82.9168 141.638C82.9168 141.74 83.019 141.842 83.1212 141.893Z" fill="#443086"/>
<path d="M84.9096 111.357C85.0118 111.408 85.114 111.408 85.2673 111.357C90.3259 109.314 95.2823 106.914 99.9322 104.106C100.137 104.003 100.188 103.697 100.085 103.493C99.9833 103.289 99.6767 103.238 99.4723 103.34C94.8225 106.097 89.9171 108.497 84.9096 110.489C84.7052 110.591 84.603 110.846 84.6541 111.05C84.7052 111.255 84.8074 111.306 84.9096 111.357Z" fill="#443086"/>
<path d="M75.712 111.867C75.7631 111.867 75.8142 111.918 75.8653 111.918L80.1575 112.021C80.413 112.021 80.6174 111.816 80.6174 111.612C80.6174 111.357 80.413 111.152 80.2086 111.152L75.9164 111.05C75.6609 111.05 75.4565 111.255 75.4565 111.459C75.4565 111.663 75.5587 111.816 75.712 111.867Z" fill="#443086"/>
<path d="M53.2804 167.629C53.587 167.782 53.8936 167.884 54.2002 167.987C59.6165 169.927 66.0547 167.425 68.9672 162.523C70.0403 166.25 73.2594 169.314 77.0406 170.08C81.2305 170.897 85.8804 168.855 88.0775 165.178C90.8879 160.48 89.6616 154.557 87.9243 148.838C87.8732 148.633 87.6177 148.48 87.3622 148.531C87.1578 148.582 87.0045 148.838 87.0556 149.093C88.7418 154.608 89.9681 160.327 87.3111 164.718C85.2672 168.089 81.0261 169.978 77.1428 169.212C73.3105 168.446 70.0914 165.076 69.4782 161.195C69.4271 160.991 69.2738 160.838 69.1205 160.838C68.9161 160.787 68.7628 160.889 68.6607 161.093C66.3613 166.199 59.7187 169.059 54.4046 167.169C49.0905 165.28 45.7691 158.897 47.1999 153.484C47.251 153.28 47.1488 153.076 46.9444 152.974C43.3165 151.544 40.5572 148.327 39.6375 144.548C38.7689 140.769 39.7908 136.633 42.3967 133.723C42.55 133.518 42.55 133.263 42.3456 133.11C42.1413 132.957 41.8858 132.957 41.7325 133.161C38.9732 136.276 37.8491 140.718 38.7688 144.752C39.6886 148.684 42.55 152.055 46.229 153.638C45.1049 159.152 48.1707 165.28 53.2804 167.629Z" fill="#443086"/>
<path d="M45.4115 110.182C45.5648 110.233 45.7181 110.233 45.8714 110.131C46.0758 109.978 46.1268 109.723 45.9736 109.518C44.0319 106.812 44.2363 102.727 46.4334 100.276C48.6306 97.7737 52.6673 97.1099 55.5798 98.6929C56.2441 99.0503 57.2149 99.561 57.9814 98.9993C58.4412 98.6418 58.5434 98.1312 58.6456 97.7227C59.3099 94.7099 60.434 92.7184 62.0691 91.595C64.2663 90.1142 67.5365 90.2673 70.0403 92.0035C72.7484 93.8929 74.0259 96.9567 74.639 99.2035C74.6901 99.4588 74.9456 99.561 75.15 99.5099C75.4055 99.4588 75.5077 99.2035 75.4566 98.9993C74.7923 96.5993 73.4127 93.3312 70.5513 91.3397C67.792 89.3993 64.0619 89.2461 61.6093 90.9312C59.7698 92.2078 58.5434 94.3525 57.8281 97.5695C57.777 97.8759 57.6748 98.2333 57.4704 98.3354C57.1638 98.5907 56.6018 98.2844 55.9886 97.978C52.7184 96.1907 48.2218 97.0078 45.7692 99.7652C43.3165 102.523 43.061 107.067 45.2071 110.131C45.2582 110.08 45.3604 110.131 45.4115 110.182Z" fill="#443086"/>
<path d="M82.8144 123.561C82.9677 123.612 83.121 123.612 83.2232 123.51C89.3038 119.527 95.3843 115.289 101.26 110.999C101.465 110.846 101.516 110.591 101.363 110.387C101.209 110.182 100.954 110.131 100.75 110.284C94.8734 114.574 88.8439 118.812 82.7633 122.795C82.559 122.948 82.5079 123.204 82.6612 123.408C82.6612 123.459 82.7123 123.51 82.8144 123.561Z" fill="#443086"/>
<path d="M73.055 129.638C73.1572 129.689 73.3105 129.689 73.4638 129.638L79.0845 126.165C79.2889 126.063 79.34 125.757 79.2378 125.552C79.1356 125.348 78.829 125.297 78.6246 125.399L73.004 128.872C72.7996 128.974 72.7485 129.28 72.8507 129.484C72.9018 129.586 72.9528 129.638 73.055 129.638Z" fill="#443086"/>
<path d="M49.2948 70.2503C33.8635 68.0035 18.4322 65.7056 3.00088 63.4588C2.38771 63.3566 1.67235 63.2545 1.26357 62.7949C0.752604 62.2332 0.854798 61.3652 1.00809 60.6503C1.77455 57.5864 4.12501 54.9822 7.13974 53.9609C8.41717 53.5524 9.89898 53.2971 10.7165 52.2247C11.2275 51.5609 11.3808 50.6928 11.6363 49.9269C12.7093 46.7098 16.3883 44.5141 19.7607 45.1269C21.0381 45.3311 22.3667 45.9439 23.593 45.5864C24.7682 45.2801 25.5858 44.2588 26.4544 43.3907C29.5203 40.5822 34.5278 40.1737 38.0535 42.4205C43.0099 45.5864 43.1632 51.7652 45.7691 56.3609C48.5795 61.3141 52.2585 62.6418 49.8569 69.0758C49.7036 69.4843 49.6014 69.7396 49.4481 69.9439C49.3459 70.1481 49.2948 70.2503 49.2948 70.2503Z" fill="#E5FCFF"/>
<path d="M220.623 159.612C204.528 157.212 188.381 154.863 172.285 152.463C171.57 146.999 177.14 141.74 182.556 142.71C183.527 140.003 184.6 137.144 186.848 135.357C189.096 133.569 192.929 133.416 194.513 135.816C196.863 131.782 201.973 129.484 206.572 130.506C211.17 131.527 214.849 135.714 215.258 140.361C215.36 141.791 215.258 143.272 215.973 144.548C216.74 145.927 218.273 146.591 219.448 147.561C222.974 150.574 222.616 155.782 220.623 159.612Z" fill="#E5FCFF"/>
<path d="M212.346 29.3482C196.25 26.9482 180.103 24.5992 164.008 22.1992C163.293 16.7354 168.862 11.4758 174.278 12.446C175.249 9.73966 176.322 6.88008 178.571 5.09285C180.819 3.30562 184.651 3.15242 186.235 5.55242C188.586 1.51838 193.695 -0.779491 198.294 0.241786C202.893 1.26306 206.572 5.4503 206.98 10.0971C207.083 11.5269 206.981 13.0077 207.696 14.2843C208.462 15.6631 209.995 16.3269 211.17 17.2971C214.696 20.3609 214.338 25.5694 212.346 29.3482Z" fill="#E5FCFF"/>
</svg>
